<mxfile host="app.diagrams.net" modified="2022-08-18T08:48:45.854Z" agent="5.0 (Macintosh; Intel Mac OS X 10_15_7) AppleWebKit/537.36 (KHTML, like Gecko) Chrome/104.0.0.0 Safari/537.36" etag="JHN0x9kCc7DIF2XMtwZX" version="20.2.4" type="github">
  <diagram id="db8GGSsWFMVXPVI7Jxbp" name="Page-1">
    <mxGraphModel dx="1084" dy="640" grid="1" gridSize="10" guides="1" tooltips="1" connect="1" arrows="1" fold="1" page="1" pageScale="1" pageWidth="1169" pageHeight="1654" math="0" shadow="0">
      <root>
        <mxCell id="0" />
        <mxCell id="1" parent="0" />
        <mxCell id="eQeKing8HIZheCVtcCyi-21" value="" style="edgeStyle=orthogonalEdgeStyle;rounded=0;orthogonalLoop=1;jettySize=auto;html=1;" edge="1" parent="1" source="eQeKing8HIZheCVtcCyi-2" target="eQeKing8HIZheCVtcCyi-20">
          <mxGeometry relative="1" as="geometry" />
        </mxCell>
        <mxCell id="eQeKing8HIZheCVtcCyi-23" value="" style="edgeStyle=orthogonalEdgeStyle;rounded=0;orthogonalLoop=1;jettySize=auto;html=1;strokeColor=none;startArrow=classic;startFill=1;" edge="1" parent="1" source="eQeKing8HIZheCVtcCyi-2" target="eQeKing8HIZheCVtcCyi-20">
          <mxGeometry relative="1" as="geometry" />
        </mxCell>
        <mxCell id="eQeKing8HIZheCVtcCyi-2" value="OLVM Server 1" style="rounded=1;whiteSpace=wrap;html=1;verticalAlign=bottom;labelPosition=center;verticalLabelPosition=top;align=center;arcSize=14;" vertex="1" parent="1">
          <mxGeometry x="223" y="350" width="282.8" height="320" as="geometry" />
        </mxCell>
        <mxCell id="eQeKing8HIZheCVtcCyi-1" value="Prod VMs" style="pointerEvents=1;shadow=0;dashed=0;html=1;strokeColor=none;fillColor=#4495D1;labelPosition=center;verticalLabelPosition=bottom;verticalAlign=top;align=center;outlineConnect=0;shape=mxgraph.veeam.server_stack;" vertex="1" parent="1">
          <mxGeometry x="245.8" y="370" width="117.2" height="99.6" as="geometry" />
        </mxCell>
        <mxCell id="eQeKing8HIZheCVtcCyi-3" value="Test VMs" style="pointerEvents=1;shadow=0;dashed=0;html=1;strokeColor=none;fillColor=#4495D1;labelPosition=center;verticalLabelPosition=bottom;verticalAlign=top;align=center;outlineConnect=0;shape=mxgraph.veeam.server_stack;" vertex="1" parent="1">
          <mxGeometry x="245.8" y="540" width="117.2" height="99.6" as="geometry" />
        </mxCell>
        <mxCell id="eQeKing8HIZheCVtcCyi-22" value="" style="edgeStyle=orthogonalEdgeStyle;rounded=0;orthogonalLoop=1;jettySize=auto;html=1;startArrow=classic;startFill=1;" edge="1" parent="1" source="eQeKing8HIZheCVtcCyi-6" target="eQeKing8HIZheCVtcCyi-20">
          <mxGeometry relative="1" as="geometry" />
        </mxCell>
        <mxCell id="eQeKing8HIZheCVtcCyi-6" value="OLVM Server 2" style="rounded=1;whiteSpace=wrap;html=1;verticalAlign=bottom;labelPosition=center;verticalLabelPosition=top;align=center;" vertex="1" parent="1">
          <mxGeometry x="665.8" y="350" width="280" height="320" as="geometry" />
        </mxCell>
        <mxCell id="eQeKing8HIZheCVtcCyi-7" value="Prod VMs" style="pointerEvents=1;shadow=0;dashed=0;html=1;strokeColor=none;fillColor=#4495D1;labelPosition=center;verticalLabelPosition=bottom;verticalAlign=top;align=center;outlineConnect=0;shape=mxgraph.veeam.server_stack;" vertex="1" parent="1">
          <mxGeometry x="805.8" y="370" width="117.2" height="99.6" as="geometry" />
        </mxCell>
        <mxCell id="eQeKing8HIZheCVtcCyi-8" value="Test VMs" style="pointerEvents=1;shadow=0;dashed=0;html=1;strokeColor=none;fillColor=#4495D1;labelPosition=center;verticalLabelPosition=bottom;verticalAlign=top;align=center;outlineConnect=0;shape=mxgraph.veeam.server_stack;" vertex="1" parent="1">
          <mxGeometry x="805.8" y="540" width="117.2" height="99.6" as="geometry" />
        </mxCell>
        <mxCell id="eQeKing8HIZheCVtcCyi-9" value="Backup - Test" style="line;strokeWidth=4;html=1;perimeter=backbonePerimeter;points=[];outlineConnect=0;fillColor=#dae8fc;strokeColor=#6c8ebf;" vertex="1" parent="1">
          <mxGeometry x="265" y="790" width="640" height="10" as="geometry" />
        </mxCell>
        <mxCell id="eQeKing8HIZheCVtcCyi-10" value="Infra DB - Prod" style="line;strokeWidth=4;html=1;perimeter=backbonePerimeter;points=[];outlineConnect=0;fillColor=#d5e8d4;strokeColor=#82b366;" vertex="1" parent="1">
          <mxGeometry x="265" y="827" width="640" height="10" as="geometry" />
        </mxCell>
        <mxCell id="eQeKing8HIZheCVtcCyi-11" value="Infra DB - Test" style="line;strokeWidth=4;html=1;perimeter=backbonePerimeter;points=[];outlineConnect=0;fillColor=#ffe6cc;strokeColor=#d79b00;" vertex="1" parent="1">
          <mxGeometry x="265" y="870" width="640" height="10" as="geometry" />
        </mxCell>
        <mxCell id="eQeKing8HIZheCVtcCyi-12" value="Logistik DB - Prod" style="line;strokeWidth=4;html=1;perimeter=backbonePerimeter;points=[];outlineConnect=0;fillColor=#fff2cc;strokeColor=#d6b656;" vertex="1" parent="1">
          <mxGeometry x="265.8" y="910" width="640" height="10" as="geometry" />
        </mxCell>
        <mxCell id="eQeKing8HIZheCVtcCyi-14" value="Logistik" style="verticalLabelPosition=bottom;html=1;verticalAlign=top;align=center;strokeColor=none;fillColor=#00BEF2;shape=mxgraph.azure.virtual_network;pointerEvents=1;" vertex="1" parent="1">
          <mxGeometry x="395.8" y="370" width="50" height="27.500000000000004" as="geometry" />
        </mxCell>
        <mxCell id="eQeKing8HIZheCVtcCyi-15" value="Prod" style="verticalLabelPosition=bottom;html=1;verticalAlign=top;align=center;strokeColor=none;fillColor=#00BEF2;shape=mxgraph.azure.virtual_network;pointerEvents=1;" vertex="1" parent="1">
          <mxGeometry x="395.8" y="430" width="50" height="27.500000000000004" as="geometry" />
        </mxCell>
        <mxCell id="eQeKing8HIZheCVtcCyi-16" value="Test" style="verticalLabelPosition=bottom;html=1;verticalAlign=top;align=center;strokeColor=none;fillColor=#00BEF2;shape=mxgraph.azure.virtual_network;pointerEvents=1;" vertex="1" parent="1">
          <mxGeometry x="395.8" y="540" width="50" height="27.500000000000004" as="geometry" />
        </mxCell>
        <mxCell id="eQeKing8HIZheCVtcCyi-17" value="Logistik" style="verticalLabelPosition=bottom;html=1;verticalAlign=top;align=center;strokeColor=none;fillColor=#00BEF2;shape=mxgraph.azure.virtual_network;pointerEvents=1;" vertex="1" parent="1">
          <mxGeometry x="715.8" y="370" width="50" height="27.500000000000004" as="geometry" />
        </mxCell>
        <mxCell id="eQeKing8HIZheCVtcCyi-18" value="Prod" style="verticalLabelPosition=bottom;html=1;verticalAlign=top;align=center;strokeColor=none;fillColor=#00BEF2;shape=mxgraph.azure.virtual_network;pointerEvents=1;" vertex="1" parent="1">
          <mxGeometry x="715.8" y="430" width="50" height="27.500000000000004" as="geometry" />
        </mxCell>
        <mxCell id="eQeKing8HIZheCVtcCyi-19" value="Test" style="verticalLabelPosition=bottom;html=1;verticalAlign=top;align=center;strokeColor=none;fillColor=#00BEF2;shape=mxgraph.azure.virtual_network;pointerEvents=1;" vertex="1" parent="1">
          <mxGeometry x="715.8" y="540" width="50" height="27.500000000000004" as="geometry" />
        </mxCell>
        <mxCell id="eQeKing8HIZheCVtcCyi-20" value="Mgmt OOB" style="line;strokeWidth=4;html=1;perimeter=backbonePerimeter;points=[];outlineConnect=0;fillColor=none;" vertex="1" parent="1">
          <mxGeometry x="265.8" y="710" width="640" height="10" as="geometry" />
        </mxCell>
        <mxCell id="eQeKing8HIZheCVtcCyi-24" value="" style="endArrow=classic;startArrow=classic;html=1;rounded=0;exitX=0.75;exitY=1;exitDx=0;exitDy=0;fillColor=#dae8fc;strokeColor=#6c8ebf;" edge="1" parent="1" source="eQeKing8HIZheCVtcCyi-2" target="eQeKing8HIZheCVtcCyi-9">
          <mxGeometry width="50" height="50" relative="1" as="geometry">
            <mxPoint x="545.8" y="640" as="sourcePoint" />
            <mxPoint x="595.8" y="590" as="targetPoint" />
          </mxGeometry>
        </mxCell>
        <mxCell id="eQeKing8HIZheCVtcCyi-25" value="" style="endArrow=classic;startArrow=classic;html=1;rounded=0;exitX=0.293;exitY=1.003;exitDx=0;exitDy=0;fillColor=#dae8fc;strokeColor=#6c8ebf;exitPerimeter=0;" edge="1" parent="1" source="eQeKing8HIZheCVtcCyi-6" target="eQeKing8HIZheCVtcCyi-9">
          <mxGeometry width="50" height="50" relative="1" as="geometry">
            <mxPoint x="445.1000000000002" y="680" as="sourcePoint" />
            <mxPoint x="445.1000000000002" y="763" as="targetPoint" />
          </mxGeometry>
        </mxCell>
        <mxCell id="eQeKing8HIZheCVtcCyi-26" value="" style="endArrow=classic;startArrow=classic;html=1;rounded=0;strokeColor=#82b366;entryX=0.286;entryY=1;entryDx=0;entryDy=0;entryPerimeter=0;fillColor=#d5e8d4;" edge="1" parent="1" source="eQeKing8HIZheCVtcCyi-10" target="eQeKing8HIZheCVtcCyi-2">
          <mxGeometry width="50" height="50" relative="1" as="geometry">
            <mxPoint x="545.8" y="640" as="sourcePoint" />
            <mxPoint x="595.8" y="590" as="targetPoint" />
          </mxGeometry>
        </mxCell>
        <mxCell id="eQeKing8HIZheCVtcCyi-27" value="" style="endArrow=classic;startArrow=classic;html=1;rounded=0;strokeColor=#82b366;entryX=0.725;entryY=1.009;entryDx=0;entryDy=0;entryPerimeter=0;fillColor=#d5e8d4;" edge="1" parent="1" source="eQeKing8HIZheCVtcCyi-10" target="eQeKing8HIZheCVtcCyi-6">
          <mxGeometry width="50" height="50" relative="1" as="geometry">
            <mxPoint x="313.88079999999997" y="803" as="sourcePoint" />
            <mxPoint x="313.88079999999997" y="680" as="targetPoint" />
          </mxGeometry>
        </mxCell>
        <mxCell id="eQeKing8HIZheCVtcCyi-28" value="" style="endArrow=classic;startArrow=classic;html=1;rounded=0;strokeColor=#d79b00;entryX=0.431;entryY=1.006;entryDx=0;entryDy=0;entryPerimeter=0;fillColor=#ffe6cc;" edge="1" parent="1" source="eQeKing8HIZheCVtcCyi-11" target="eQeKing8HIZheCVtcCyi-2">
          <mxGeometry width="50" height="50" relative="1" as="geometry">
            <mxPoint x="545.8" y="640" as="sourcePoint" />
            <mxPoint x="595.8" y="590" as="targetPoint" />
          </mxGeometry>
        </mxCell>
        <mxCell id="eQeKing8HIZheCVtcCyi-29" value="" style="endArrow=classic;startArrow=classic;html=1;rounded=0;strokeColor=#d79b00;fillColor=#ffe6cc;entryX=0.571;entryY=1.003;entryDx=0;entryDy=0;entryPerimeter=0;" edge="1" parent="1" source="eQeKing8HIZheCVtcCyi-11" target="eQeKing8HIZheCVtcCyi-6">
          <mxGeometry width="50" height="50" relative="1" as="geometry">
            <mxPoint x="825.8" y="810" as="sourcePoint" />
            <mxPoint x="825.8" y="700" as="targetPoint" />
          </mxGeometry>
        </mxCell>
        <mxCell id="eQeKing8HIZheCVtcCyi-30" value="" style="endArrow=classic;startArrow=classic;html=1;rounded=0;strokeColor=#d6b656;exitX=0.586;exitY=1.006;exitDx=0;exitDy=0;exitPerimeter=0;fillColor=#fff2cc;" edge="1" parent="1" source="eQeKing8HIZheCVtcCyi-2" target="eQeKing8HIZheCVtcCyi-12">
          <mxGeometry width="50" height="50" relative="1" as="geometry">
            <mxPoint x="545.8" y="640" as="sourcePoint" />
            <mxPoint x="595.8" y="590" as="targetPoint" />
          </mxGeometry>
        </mxCell>
        <mxCell id="eQeKing8HIZheCVtcCyi-31" value="" style="endArrow=classic;startArrow=classic;html=1;rounded=0;strokeColor=#d6b656;exitX=0.421;exitY=1.009;exitDx=0;exitDy=0;exitPerimeter=0;fillColor=#fff2cc;" edge="1" parent="1" source="eQeKing8HIZheCVtcCyi-6" target="eQeKing8HIZheCVtcCyi-12">
          <mxGeometry width="50" height="50" relative="1" as="geometry">
            <mxPoint x="398.7208000000001" y="681.9200000000001" as="sourcePoint" />
            <mxPoint x="398.7208000000001" y="883" as="targetPoint" />
          </mxGeometry>
        </mxCell>
        <mxCell id="eQeKing8HIZheCVtcCyi-32" value="VSphere 01" style="rounded=1;whiteSpace=wrap;html=1;verticalAlign=bottom;labelPosition=center;verticalLabelPosition=top;align=center;arcSize=14;" vertex="1" parent="1">
          <mxGeometry x="223" y="40" width="282.8" height="200" as="geometry" />
        </mxCell>
        <mxCell id="eQeKing8HIZheCVtcCyi-33" value="VSphere02" style="rounded=1;whiteSpace=wrap;html=1;verticalAlign=bottom;labelPosition=center;verticalLabelPosition=top;align=center;arcSize=14;" vertex="1" parent="1">
          <mxGeometry x="665.8" y="40" width="282.8" height="200" as="geometry" />
        </mxCell>
        <mxCell id="eQeKing8HIZheCVtcCyi-34" value="Logistik DB - Test" style="line;strokeWidth=4;html=1;perimeter=backbonePerimeter;points=[];outlineConnect=0;fillColor=#dae8fc;strokeColor=#6c8ebf;" vertex="1" parent="1">
          <mxGeometry x="265.8" y="950" width="640" height="10" as="geometry" />
        </mxCell>
        <mxCell id="eQeKing8HIZheCVtcCyi-35" value="Backup - Prod" style="line;strokeWidth=4;html=1;perimeter=backbonePerimeter;points=[];outlineConnect=0;fillColor=#fff2cc;strokeColor=#d6b656;" vertex="1" parent="1">
          <mxGeometry x="260" y="750" width="640" height="10" as="geometry" />
        </mxCell>
        <mxCell id="eQeKing8HIZheCVtcCyi-37" value="" style="line;strokeWidth=4;direction=south;html=1;perimeter=backbonePerimeter;points=[];outlineConnect=0;fillColor=#000000;" vertex="1" parent="1">
          <mxGeometry x="150" y="400" width="10" height="710" as="geometry" />
        </mxCell>
        <mxCell id="eQeKing8HIZheCVtcCyi-38" value="" style="line;strokeWidth=4;direction=south;html=1;perimeter=backbonePerimeter;points=[];outlineConnect=0;fillColor=#000000;" vertex="1" parent="1">
          <mxGeometry x="1030" y="410" width="10" height="700" as="geometry" />
        </mxCell>
      </root>
    </mxGraphModel>
  </diagram>
</mxfile>
